<svg width="310" height="96" viewBox="0 0 310 96" fill="none" xmlns="http://www.w3.org/2000/svg">
<g opacity="0.97" clip-path="url(#clip0_255_47)">
<path d="M50.944 51.808V43.488H73.6C73.8133 47.072 73.4507 50.4213 72.512 53.536C71.5733 56.6507 70.1227 59.4027 68.16 61.792C66.1973 64.1813 63.744 66.0587 60.8 67.424C57.856 68.7467 54.4853 69.408 50.688 69.408C47.104 69.408 43.8187 68.8533 40.832 67.744C37.8453 66.592 35.264 64.9707 33.088 62.88C30.912 60.7467 29.2053 58.2293 27.968 55.328C26.7733 52.384 26.176 49.1413 26.176 45.6C26.176 42.0587 26.7947 38.8587 28.032 36C29.2693 33.0987 31.0187 30.624 33.28 28.576C35.5413 26.528 38.1867 24.9493 41.216 23.84C44.2453 22.7307 47.5307 22.176 51.072 22.176C54.2293 22.176 57.0667 22.624 59.584 23.52C62.1013 24.416 64.32 25.6747 66.24 27.296C68.2027 28.8747 69.888 30.7093 71.296 32.8L61.696 37.792C60.672 36 59.2853 34.528 57.536 33.376C55.8293 32.1813 53.6747 31.584 51.072 31.584C48.5973 31.584 46.3147 32.1387 44.224 33.248C42.176 34.3573 40.5333 35.9573 39.296 38.048C38.1013 40.096 37.504 42.6133 37.504 45.6C37.504 48.544 38.08 51.104 39.232 53.28C40.4267 55.4133 42.0267 57.0773 44.032 58.272C46.08 59.424 48.4267 60 51.072 60C52.6933 60 54.1653 59.808 55.488 59.424C56.8107 58.9973 57.9413 58.4213 58.88 57.696C59.8187 56.928 60.608 56.0533 61.248 55.072C61.9307 54.048 62.464 52.96 62.848 51.808H50.944ZM94.877 68.64C91.4637 68.64 88.4983 68.0213 85.981 66.784C83.5063 65.504 81.5863 63.712 80.221 61.408C78.8557 59.104 78.173 56.3947 78.173 53.28C78.173 50.1227 78.8343 47.392 80.157 45.088C81.4797 42.784 83.3783 41.0133 85.853 39.776C88.3703 38.5387 91.3357 37.92 94.749 37.92C98.1623 37.92 101.042 38.5173 103.389 39.712C105.736 40.864 107.528 42.5493 108.765 44.768C110.002 46.9867 110.621 49.6747 110.621 52.832C110.621 53.3013 110.621 53.7707 110.621 54.24C110.621 54.6667 110.578 55.0293 110.493 55.328H83.613V49.952H101.789L99.485 52.896C99.6983 52.5973 99.869 52.2347 99.997 51.808C100.168 51.3387 100.253 50.9547 100.253 50.656C100.253 49.376 100.018 48.2667 99.549 47.328C99.0797 46.3893 98.4183 45.664 97.565 45.152C96.7117 44.64 95.709 44.384 94.557 44.384C93.1063 44.384 91.8903 44.704 90.909 45.344C89.9277 45.984 89.181 46.9653 88.669 48.288C88.1997 49.568 87.9437 51.1893 87.901 53.152C87.901 54.944 88.157 56.48 88.669 57.76C89.181 59.04 89.949 60.0213 90.973 60.704C91.997 61.344 93.2557 61.664 94.749 61.664C96.4557 61.664 97.9063 61.344 99.101 60.704C100.338 60.064 101.32 59.104 102.045 57.824L110.685 59.936C109.149 62.8373 107.058 65.0133 104.413 66.464C101.81 67.9147 98.6317 68.64 94.877 68.64ZM135.725 50.08C135.725 48.3307 135.383 46.9867 134.701 46.048C134.061 45.1093 132.973 44.64 131.437 44.64C130.413 44.64 129.517 44.8533 128.749 45.28C127.981 45.7067 127.383 46.3253 126.957 47.136C126.53 47.9467 126.317 48.928 126.317 50.08V68H116.589V38.56H126.317V42.976C127.17 41.3547 128.322 40.096 129.773 39.2C131.266 38.304 133.101 37.856 135.277 37.856C138.946 37.856 141.613 38.8373 143.277 40.8C144.941 42.7627 145.773 45.5147 145.773 49.056V68H135.725V50.08ZM162.937 38.56V68H153.401V38.56H162.937ZM171.449 48.544C170.937 48.032 170.382 47.6267 169.785 47.328C169.23 47.0293 168.526 46.88 167.673 46.88C166.734 46.88 165.902 47.136 165.177 47.648C164.452 48.16 163.897 48.9067 163.513 49.888C163.129 50.8693 162.937 52.064 162.937 53.472L160.633 50.08C160.633 47.7333 161.081 45.6427 161.977 43.808C162.916 41.9733 164.132 40.5227 165.625 39.456C167.118 38.3893 168.676 37.856 170.297 37.856C171.364 37.856 172.388 38.0693 173.369 38.496C174.35 38.9227 175.097 39.52 175.609 40.288L171.449 48.544ZM193.752 68.64C190.339 68.64 187.373 68.0213 184.856 66.784C182.381 65.504 180.461 63.712 179.096 61.408C177.731 59.104 177.048 56.3947 177.048 53.28C177.048 50.1227 177.709 47.392 179.032 45.088C180.355 42.784 182.253 41.0133 184.728 39.776C187.245 38.5387 190.211 37.92 193.624 37.92C197.037 37.92 199.917 38.5173 202.264 39.712C204.611 40.864 206.403 42.5493 207.64 44.768C208.877 46.9867 209.496 49.6747 209.496 52.832C209.496 53.3013 209.496 53.7707 209.496 54.24C209.496 54.6667 209.453 55.0293 209.368 55.328H182.488V49.952H200.664L198.36 52.896C198.573 52.5973 198.744 52.2347 198.872 51.808C199.043 51.3387 199.128 50.9547 199.128 50.656C199.128 49.376 198.893 48.2667 198.424 47.328C197.955 46.3893 197.293 45.664 196.44 45.152C195.587 44.64 194.584 44.384 193.432 44.384C191.981 44.384 190.765 44.704 189.784 45.344C188.803 45.984 188.056 46.9653 187.544 48.288C187.075 49.568 186.819 51.1893 186.776 53.152C186.776 54.944 187.032 56.48 187.544 57.76C188.056 59.04 188.824 60.0213 189.848 60.704C190.872 61.344 192.131 61.664 193.624 61.664C195.331 61.664 196.781 61.344 197.976 60.704C199.213 60.064 200.195 59.104 200.92 57.824L209.56 59.936C208.024 62.8373 205.933 65.0133 203.288 66.464C200.685 67.9147 197.507 68.64 193.752 68.64Z" fill="url(#paint0_linear_255_47)"/>
<path d="M216.168 23.2H230.568V68H216.168V23.2ZM239.543 23.2H254.199V68H239.543V23.2ZM257.143 68H249.271V55.84H256.503C257.74 55.84 258.999 55.7333 260.279 55.52C261.559 55.3067 262.732 54.8587 263.799 54.176C264.865 53.4933 265.719 52.4693 266.359 51.104C267.041 49.7387 267.382 47.904 267.382 45.6C267.382 43.296 267.041 41.4613 266.359 40.096C265.719 38.7307 264.865 37.7067 263.799 37.024C262.732 36.3413 261.559 35.8933 260.279 35.68C258.999 35.4667 257.74 35.36 256.503 35.36H249.271V23.2H257.143C262.348 23.2 266.807 24.096 270.519 25.888C274.273 27.68 277.132 30.24 279.095 33.568C281.1 36.896 282.103 40.9067 282.103 45.6C282.103 50.2507 281.1 54.2613 279.095 57.632C277.132 60.96 274.273 63.52 270.519 65.312C266.807 67.104 262.348 68 257.143 68Z" fill="url(#paint1_linear_255_47)"/>
</g>
<defs>
<linearGradient id="paint0_linear_255_47" x1="24" y1="29.5" x2="364" y2="29.5" gradientUnits="userSpaceOnUse">
<stop stop-color="white"/>
<stop offset="1" stop-color="#606060"/>
</linearGradient>
<linearGradient id="paint1_linear_255_47" x1="216" y1="70.5" x2="278.5" y2="29" gradientUnits="userSpaceOnUse">
<stop stop-color="#001EFF"/>
<stop offset="0.25" stop-color="#008DF7"/>
<stop offset="0.5" stop-color="#00FFEE"/>
<stop offset="0.75" stop-color="#9C63C2"/>
<stop offset="1" stop-color="#FF00A6"/>
</linearGradient>
<clipPath id="clip0_255_47">
<rect width="310" height="96" fill="white"/>
</clipPath>
</defs>
</svg>
